<svg version="1.1" id="Layer_1" xmlns="http://www.w3.org/2000/svg" xmlns:xlink="http://www.w3.org/1999/xlink" x="0px" y="0px"
	 width="100%" viewBox="0 0 512 512" enable-background="new 0 0 512 512" xml:space="preserve">
<path fill="#010101" opacity="1.000000" stroke="none" 
	d="
M513.000000,197.000000 
	C513.000000,301.307983 512.981812,405.116028 513.083740,508.923889 
	C513.086975,512.180725 512.657898,513.106140 509.077911,513.103577 
	C341.118988,512.984558 173.159973,512.983459 5.201079,513.106689 
	C1.463617,513.109436 0.911791,512.177979 0.913833,508.703003 
	C1.012438,340.910706 1.011085,173.118332 0.921321,5.326012 
	C0.919508,1.936034 1.351212,0.884108 5.172043,0.887083 
	C173.130936,1.017860 341.089966,1.014654 509.048889,0.899628 
	C512.569580,0.897217 513.095703,1.727590 513.089417,5.047155 
	C512.968567,68.864594 513.000000,132.682327 513.000000,197.000000 
z"/>
<path fill="#EBE9EB" opacity="1.000000" stroke="none" 
	d="
M249.451111,277.362122 
	C247.829773,271.533142 244.239105,269.846985 238.811768,269.856445 
	C177.674011,269.963135 116.535896,269.872375 55.398361,270.029572 
	C50.899040,270.041138 49.634842,268.997589 49.694027,264.390778 
	C49.974346,242.571426 49.847691,220.746841 49.969044,198.465851 
	C55.664959,193.147903 62.477001,190.260269 68.794563,186.603760 
	C124.017242,154.641876 179.246246,122.690613 234.550980,90.870728 
	C240.327072,87.547417 246.081055,84.183167 251.820526,80.801414 
	C255.559937,78.598114 258.791992,78.634117 262.534698,80.839310 
	C284.351135,93.693619 306.305237,106.313278 328.260834,118.928276 
	C371.880524,143.990799 415.322235,169.361603 458.993958,194.333725 
	C460.577148,195.239044 462.334656,195.889481 463.689514,197.739014 
	C464.030731,221.127335 464.105042,244.248764 464.235077,267.369873 
	C464.245880,269.293274 463.600525,270.120667 461.643494,269.941071 
	C460.488464,269.835083 459.315674,269.923767 458.150848,269.923767 
	C397.913300,269.923920 337.675720,269.952606 277.438263,269.871368 
	C272.420349,269.864594 268.542328,270.919159 267.089569,276.711609 
	C261.348267,280.052765 255.604568,279.331329 249.451111,277.362122 
z"/>
<path fill="#9ED2FC" opacity="1.000000" stroke="none" 
	d="
M234.835724,55.833084 
	C168.710098,93.997948 102.910919,131.995102 37.093723,169.961029 
	C35.093815,171.114670 32.996071,172.311096 30.788300,172.850296 
	C25.205133,174.213852 19.497246,171.246796 17.129675,166.120056 
	C14.800187,161.075775 16.095760,155.311844 20.562580,151.721954 
	C22.233320,150.379196 24.167353,149.348312 26.035849,148.269653 
	C99.760597,105.709488 173.516525,63.203159 247.180557,20.538176 
	C253.993637,16.592157 260.041840,16.577024 266.805206,20.491764 
	C341.056885,63.469757 415.378937,106.326126 489.671417,149.233658 
	C496.185608,152.995911 498.867889,157.751999 497.795685,163.260513 
	C496.133575,171.799530 487.189789,175.726547 479.104187,171.158951 
	C464.483459,162.899673 449.992645,154.410309 435.450409,146.012146 
	C378.434753,113.085526 321.387909,80.212547 264.457214,47.139614 
	C259.019806,43.980846 254.542572,43.692688 249.348648,47.331841 
	C244.871582,50.468716 239.908005,52.911243 234.835724,55.833084 
z"/>
<path fill="#9DD1FA" opacity="1.000000" stroke="none" 
	d="
M118.000000,475.031586 
	C243.145370,475.031586 367.790771,475.056915 492.436035,474.928864 
	C496.916992,474.924255 498.591125,475.918121 498.091888,480.554474 
	C497.666168,484.507935 497.756042,488.563690 498.077332,492.536987 
	C498.367859,496.129608 497.082489,496.919434 493.634644,496.902893 
	C464.473633,496.763245 435.311676,496.823181 406.149994,496.823212 
	C363.823883,496.823303 321.497742,496.855927 279.171783,496.780579 
	C274.120148,496.771606 269.751251,497.263885 268.554108,503.296478 
	C268.216431,504.998108 266.880493,505.042267 265.468628,505.019379 
	C262.303345,504.967987 259.131317,504.888062 255.971893,505.033600 
	C252.132370,505.210419 248.756821,505.513855 247.491592,500.324341 
	C246.790695,497.449554 243.468185,496.774445 240.401810,496.797668 
	C230.737366,496.870880 221.071991,496.823334 211.406982,496.823334 
	C148.084457,496.823181 84.761856,496.783478 21.439608,496.913666 
	C17.281919,496.922211 15.310884,496.297272 15.928122,491.595917 
	C16.634501,486.215637 13.649637,478.915222 17.079138,475.854004 
	C20.078938,473.176361 27.209198,475.049469 32.514874,475.044373 
	C60.843227,475.017212 89.171623,475.031586 118.000000,475.031586 
z"/>
<path fill="#9CD0F9" opacity="1.000000" stroke="none" 
	d="
M248.983566,277.394287 
	C254.725510,277.044556 260.375427,277.046509 266.489929,277.049011 
	C268.831085,283.653381 270.505768,284.910553 277.618011,284.911133 
	C349.280792,284.916870 420.943665,284.949646 492.606232,284.825073 
	C496.729034,284.817902 498.667389,285.397980 498.109070,290.096710 
	C497.620941,294.205170 497.747040,298.438873 498.086823,302.577423 
	C498.375854,306.097748 496.919678,307.006378 493.833466,306.588562 
	C493.342499,306.522125 492.834747,306.579437 492.334778,306.579437 
	C335.509918,306.579437 178.685059,306.555542 21.860327,306.693024 
	C17.088570,306.697205 15.369672,305.667389 15.904543,300.755066 
	C16.370821,296.472687 16.094200,292.096680 15.962875,287.767548 
	C15.898976,285.661133 16.458223,284.626495 18.731792,284.893188 
	C19.882492,285.028168 21.062222,284.915039 22.228825,284.915039 
	C94.224930,284.914856 166.221039,284.916351 238.217148,284.912201 
	C245.420395,284.911774 246.928497,283.883087 248.983566,277.394287 
z"/>
<path fill="#B5B0B6" opacity="1.000000" stroke="none" 
	d="
M297.464661,401.999817 
	C297.464844,387.166931 297.569611,372.832794 297.389709,358.502197 
	C297.345886,355.009979 298.350189,353.801270 301.871216,354.048004 
	C305.149872,354.277771 308.552063,354.586761 311.686737,352.974243 
	C316.109619,350.699097 318.323883,347.021271 318.411560,342.115021 
	C318.509827,336.616943 318.584015,331.112610 318.424622,325.618103 
	C318.340637,322.723572 319.044861,321.465546 322.276917,321.511078 
	C334.440765,321.682495 346.609009,321.644043 358.774231,321.531952 
	C361.386047,321.507935 362.261658,322.330688 362.171783,324.944214 
	C362.000122,329.938110 362.096222,334.942352 362.130096,339.941956 
	C362.195221,349.564545 366.633423,354.043427 376.131744,354.123444 
	C383.126038,354.182343 383.126282,354.182343 383.126343,361.337799 
	C383.126465,381.670441 383.047028,402.003693 383.199646,422.335175 
	C383.227051,425.985535 382.647888,427.519592 378.429108,427.443390 
	C365.875244,427.216644 362.127655,431.214874 362.123810,443.824982 
	C362.122589,447.824829 361.860321,451.847229 362.200165,455.817993 
	C362.516296,459.511536 361.052124,460.171387 357.698242,460.112640 
	C346.202148,459.911224 334.694183,459.820007 323.203979,460.148193 
	C318.991333,460.268524 318.185394,458.749084 318.406799,455.047089 
	C318.684875,450.397308 318.542053,445.716797 318.454834,441.051880 
	C318.285553,431.996674 313.865753,427.549683 304.943573,427.326813 
	C297.464661,427.139984 297.464600,427.139984 297.464478,419.499237 
	C297.464386,413.832764 297.464478,408.166290 297.464661,401.999817 
z"/>
<path fill="#B5B0B6" opacity="1.000000" stroke="none" 
	d="
M172.000244,460.034271 
	C166.169556,460.034119 160.833740,459.896454 155.510010,460.090515 
	C152.756943,460.190857 151.667389,459.481445 151.811813,456.532196 
	C152.047852,451.712738 151.892990,446.873169 151.870682,442.042236 
	C151.823685,431.867828 147.396759,427.118896 137.296494,427.450348 
	C132.218811,427.616974 130.659866,426.385223 130.749954,421.048157 
	C131.098511,400.397156 130.977570,379.736115 130.812668,359.080566 
	C130.782883,355.351532 131.490646,353.937653 135.636536,354.012390 
	C148.269318,354.240082 151.764252,350.399994 151.925690,337.689606 
	C151.992599,332.422272 149.583328,325.379761 152.981369,322.398834 
	C155.938995,319.804260 162.817825,321.627563 167.964554,321.592926 
	C175.294067,321.543579 182.635193,321.821686 189.949799,321.487854 
	C194.175476,321.295013 196.022049,322.235138 195.566711,326.877899 
	C195.129807,331.332672 195.400406,335.865936 195.495636,340.361847 
	C195.695923,349.815887 199.994690,354.040741 209.361938,354.124786 
	C216.477341,354.188629 216.478119,354.188599 216.478256,361.309753 
	C216.478607,381.633453 216.400330,401.957703 216.550018,422.280304 
	C216.576996,425.944092 215.950439,427.497528 211.743698,427.437012 
	C199.144531,427.255615 195.585754,431.160828 195.426880,443.829987 
	C195.360886,449.092285 197.739334,456.067871 194.450302,459.151459 
	C191.194229,462.204132 184.294128,459.827454 178.996689,460.021240 
	C176.833893,460.100372 174.665817,460.034271 172.000244,460.034271 
z"/>
<path fill="#D9D7DA" opacity="1.000000" stroke="none" 
	d="
M464.060303,197.550385 
	C454.266205,194.278381 445.806061,188.307404 436.871674,183.227859 
	C415.637146,171.155151 394.508270,158.896255 373.358673,146.674591 
	C353.360474,135.118286 333.393860,123.507347 313.406738,111.931847 
	C295.576050,101.605225 277.736816,91.293327 259.899780,80.977615 
	C258.026642,79.894310 256.348816,79.889839 254.322449,81.070572 
	C226.468674,97.300301 198.582016,113.473976 170.657593,129.581909 
	C143.450592,145.275986 116.186874,160.871689 88.956497,176.525284 
	C77.142838,183.316467 65.355118,190.152802 53.538109,196.938110 
	C52.700924,197.418839 51.718884,197.647293 50.438122,198.000305 
	C49.985538,192.850845 50.055870,187.684952 49.754936,182.540771 
	C49.568073,179.346466 51.967758,178.780273 53.893475,177.667038 
	C102.125923,149.784470 150.365555,121.914368 198.607635,94.048454 
	C216.752045,83.567757 234.940262,73.162056 253.018112,62.567898 
	C255.750412,60.966690 257.779358,60.635815 260.685089,62.318436 
	C327.462219,100.987297 394.293854,139.561951 461.156189,178.083389 
	C463.491150,179.428635 464.417297,180.906921 464.273438,183.599274 
	C464.033661,188.086655 464.189453,192.595154 464.060303,197.550385 
z"/>
<path fill="#FFE07D" opacity="1.000000" stroke="none" 
	d="
M115.359909,370.664703 
	C115.764130,388.674103 115.778389,406.322540 115.939377,423.969635 
	C115.963364,426.599548 115.129242,427.389618 112.538750,427.372589 
	C97.717606,427.275116 82.894203,427.221100 68.074661,427.403412 
	C64.675186,427.445251 64.855438,425.701477 64.862244,423.386536 
	C64.912704,406.233429 64.901077,389.080139 64.991852,371.464844 
	C66.727898,369.295288 68.892426,369.139771 71.055679,369.124634 
	C83.958588,369.034302 96.861809,369.036346 109.764748,369.123596 
	C111.587204,369.135925 113.413429,369.258453 115.359909,370.664703 
z"/>
<path fill="#FFE07D" opacity="1.000000" stroke="none" 
	d="
M448.551819,370.676147 
	C448.988617,388.813782 449.002045,406.625061 449.167023,424.434937 
	C449.191376,427.067841 448.043518,427.368561 445.877625,427.359039 
	C431.225677,427.294617 416.572449,427.240814 401.921814,427.394287 
	C398.779968,427.427216 398.045471,426.380310 398.069244,423.397644 
	C398.206085,406.248962 398.147278,389.098755 398.238983,371.489197 
	C399.745697,369.284973 401.784027,369.174011 403.756104,369.153229 
	C416.984253,369.013947 430.213135,369.026459 443.441528,369.142365 
	C445.099792,369.156891 446.751404,369.350220 448.551819,370.676147 
z"/>
<path fill="#FFE07D" opacity="1.000000" stroke="none" 
	d="
M281.842499,370.668091 
	C282.285156,388.826660 282.338684,406.619080 282.515625,424.410309 
	C282.541473,427.010681 281.332275,427.362183 279.179688,427.354034 
	C264.372101,427.298065 249.563309,427.236786 234.757141,427.391937 
	C231.443756,427.426666 231.485733,425.702820 231.493759,423.353058 
	C231.552368,406.216370 231.547607,389.079498 231.682892,371.489258 
	C233.392578,369.163910 235.621140,369.128662 237.769119,369.110413 
	C250.582779,369.001373 263.397034,369.014801 276.210907,369.099121 
	C278.045807,369.111206 279.878906,369.259186 281.842499,370.668091 
z"/>
<path fill="#E5E3E5" opacity="1.000000" stroke="none" 
	d="
M277.000183,442.310425 
	C284.824890,442.310486 292.151978,442.417267 299.473175,442.256989 
	C302.320526,442.194672 303.825317,442.726746 303.581726,446.024353 
	C303.252655,450.478821 304.956146,456.275330 302.735107,459.071503 
	C300.394196,462.018738 294.348969,459.985748 289.937439,460.003021 
	C264.967163,460.100922 239.995636,459.958038 215.026443,460.148499 
	C211.223526,460.177521 209.966507,459.173553 210.430420,455.456848 
	C210.959137,451.220947 208.585999,445.544556 211.501923,443.073944 
	C213.967667,440.984863 219.427383,442.335724 223.562393,442.326752 
	C241.208252,442.288452 258.854218,442.310425 277.000183,442.310425 
z"/>
<path fill="#E6E4E6" opacity="1.000000" stroke="none" 
	d="
M121.992722,442.316895 
	C126.322205,442.317566 130.155396,442.394897 133.983459,442.288544 
	C136.093063,442.229950 137.151245,442.931610 136.884369,445.142334 
	C136.864563,445.306458 136.886673,445.475281 136.882156,445.641693 
	C136.756851,450.266693 138.299316,456.162872 136.023544,459.150146 
	C133.855682,461.995789 127.622231,459.990875 123.187019,460.005737 
	C98.202194,460.089508 73.216537,459.977386 48.232327,460.127045 
	C44.836163,460.147400 43.468079,459.481323 43.816502,455.834473 
	C44.225739,451.551056 42.493916,445.927490 44.640831,443.255981 
	C46.918758,440.421417 52.760479,442.378662 57.032864,442.360016 
	C78.519653,442.266083 100.007080,442.316895 121.992722,442.316895 
z"/>
<path fill="#E6E4E6" opacity="1.000000" stroke="none" 
	d="
M441.000000,460.046143 
	C420.841522,460.046112 401.182465,459.969086 381.525146,460.120667 
	C378.189484,460.146393 376.691650,459.527191 377.046021,455.838562 
	C377.456665,451.564392 375.762756,445.963562 377.909821,443.286499 
	C380.208984,440.419830 386.029663,442.376007 390.299133,442.360748 
	C415.288422,442.271484 440.278778,442.403900 465.267120,442.226135 
	C469.158051,442.198486 470.609802,443.138916 470.201782,447.146545 
	C469.784424,451.245667 471.462067,456.658264 469.396393,459.189331 
	C467.197113,461.884125 461.599579,459.882019 457.492157,460.006683 
	C452.165924,460.168304 446.831116,460.046143 441.000000,460.046143 
z"/>
<path fill="#D9D7DA" opacity="1.000000" stroke="none" 
	d="
M211.221756,332.345398 
	C209.771011,321.556580 209.771011,321.556580 220.149521,321.556580 
	C245.616928,321.556580 271.084351,321.556519 296.551758,321.556610 
	C303.506775,321.556671 303.508026,321.556915 303.503296,328.320068 
	C303.502625,329.318573 303.483582,330.317108 303.331299,331.686462 
	C301.143616,333.833954 298.642578,333.928253 296.132904,333.931427 
	C270.046753,333.964447 243.960556,333.967529 217.874420,333.924896 
	C215.721115,333.921387 213.529785,333.947968 211.221756,332.345398 
z"/>
<path fill="#DAD8DB" opacity="1.000000" stroke="none" 
	d="
M44.462532,332.338318 
	C43.474998,321.571411 43.474998,321.571411 53.504093,321.571411 
	C79.080864,321.571411 104.657700,321.539490 130.234360,321.590790 
	C137.941223,321.606232 136.751801,320.574249 136.865372,328.127289 
	C136.880356,329.123505 136.861115,330.120209 136.766602,331.570618 
	C134.752258,334.122925 132.155807,333.895813 129.707474,333.901794 
	C103.499306,333.966034 77.291000,333.958923 51.082767,333.912964 
	C48.933891,333.909210 46.745857,333.947510 44.462532,332.338318 
z"/>
<path fill="#DAD8DB" opacity="1.000000" stroke="none" 
	d="
M377.669250,332.380859 
	C376.692657,321.571472 376.692657,321.571442 386.825897,321.571442 
	C412.404572,321.571442 437.983215,321.571259 463.561890,321.571625 
	C470.117310,321.571747 470.117676,321.572601 470.117432,328.102356 
	C470.117401,329.098907 470.111877,330.095459 470.017548,331.549805 
	C467.961304,333.985596 465.408752,333.905670 462.930847,333.910492 
	C436.718353,333.961731 410.505737,333.957886 384.293213,333.914703 
	C382.141449,333.911163 379.959869,333.929260 377.669250,332.380859 
z"/>
<path fill="#F4BB65" opacity="1.000000" stroke="none" 
	d="
M282.335571,370.653442 
	C265.716370,371.022369 249.240875,371.010132 232.284149,371.016907 
	C231.744003,370.880585 231.637207,370.726501 231.633087,370.569763 
	C231.494217,365.288116 229.441528,358.712830 232.367081,355.118835 
	C234.988632,351.898315 241.716476,354.235291 246.622665,354.155029 
	C256.918945,353.986633 267.226593,354.319092 277.515778,354.000824 
	C281.789886,353.868622 283.003448,355.263794 282.608185,359.317383 
	C282.255066,362.938782 282.498901,366.618378 282.335571,370.653442 
z"/>
<path fill="#F9BF68" opacity="1.000000" stroke="none" 
	d="
M115.790909,370.564270 
	C99.135628,371.014160 82.568947,371.002167 65.538506,370.996490 
	C65.008476,366.369598 65.039871,361.732086 64.836533,357.104919 
	C64.727745,354.629486 65.766624,354.065826 68.042915,354.077637 
	C82.954086,354.155151 97.866066,354.156036 112.777222,354.077576 
	C115.112556,354.065277 116.025436,354.771423 115.940102,357.180695 
	C115.787697,361.483215 115.886017,365.794678 115.790909,370.564270 
z"/>
<path fill="#F8BF67" opacity="1.000000" stroke="none" 
	d="
M449.016907,370.542603 
	C432.357056,371.009216 415.787933,371.015503 398.770966,371.025543 
	C398.254974,366.535675 398.288818,362.037292 398.078918,357.550262 
	C397.960388,355.017944 398.696747,354.040802 401.411469,354.061829 
	C416.242828,354.176636 431.076080,354.183350 445.907227,354.056549 
	C448.702026,354.032684 449.254089,355.143433 449.166504,357.584778 
	C449.017273,361.745972 449.114136,365.915955 449.016907,370.542603 
z"/>
<path fill="#ECEAEC" opacity="1.000000" stroke="none" 
	d="
M44.004581,332.461060 
	C74.651764,332.013855 105.215645,332.018829 136.227493,332.024170 
	C137.106964,339.120483 137.106964,339.120941 130.413269,339.120972 
	C103.671921,339.121185 76.929138,338.978333 50.190491,339.247009 
	C45.122047,339.297943 42.859512,338.164124 44.004581,332.461060 
z"/>
<path fill="#ECEAEC" opacity="1.000000" stroke="none" 
	d="
M377.233643,332.464172 
	C407.879425,332.013184 438.438904,332.003510 469.462311,332.000732 
	C469.989319,332.666901 470.008209,333.333923 470.122803,333.984131 
	C470.814575,337.908783 469.627472,339.280487 465.243103,339.241913 
	C437.993378,339.002014 410.739288,338.989838 383.489746,339.239838 
	C378.476837,339.285828 376.060974,338.242126 377.233643,332.464172 
z"/>
<path fill="#ECEAEC" opacity="1.000000" stroke="none" 
	d="
M210.681000,332.508057 
	C241.283127,332.043060 271.755890,332.028564 302.709106,332.035645 
	C303.868958,339.120575 303.868958,339.120972 296.963501,339.121002 
	C270.133789,339.121185 243.302017,338.947205 216.476212,339.270081 
	C211.209763,339.333435 209.646957,337.779663 210.681000,332.508057 
z"/>
<path fill="#050505" opacity="1.000000" stroke="none" 
	d="
M157.639923,176.100769 
	C168.944016,182.828598 172.376373,192.171173 167.755920,203.773788 
	C166.882462,205.967148 167.449738,206.916046 168.774704,208.431396 
	C175.276062,215.866913 177.049728,224.351654 172.968582,233.443710 
	C168.825409,242.674026 161.367645,247.256027 151.178604,247.262497 
	C145.015045,247.266418 138.849533,247.418777 132.688568,247.305222 
	C127.314613,247.206192 124.576218,244.701157 124.536285,239.329697 
	C124.395134,220.339218 124.462433,201.347076 124.483765,182.355606 
	C124.488441,178.187302 126.474754,174.618301 130.582809,174.464127 
	C139.484619,174.130081 148.550644,172.657547 157.639923,176.100769 
z"/>
<path fill="#040404" opacity="1.000000" stroke="none" 
	d="
M264.894104,214.999954 
	C264.894531,204.013046 264.947174,193.525787 264.869232,183.039474 
	C264.838654,178.927322 266.196381,175.878525 270.367950,174.649307 
	C274.366241,173.471191 277.043640,175.408463 279.202515,178.533890 
	C287.571899,190.650330 295.958405,202.754929 305.243561,216.171677 
	C305.243561,211.657257 305.259735,208.615631 305.240417,205.574234 
	C305.190674,197.750900 305.012756,189.926285 305.108643,182.104904 
	C305.165314,177.483124 308.320984,174.264816 312.398743,174.140442 
	C316.301575,174.021408 319.896698,177.033463 319.972931,181.208664 
	C320.319275,200.180450 320.538940,219.155670 320.610565,238.130386 
	C320.625366,242.053192 318.701996,245.162384 314.602295,246.385666 
	C310.435303,247.629013 307.438263,245.759796 305.190857,242.537613 
	C297.020233,230.823273 288.942291,219.044266 279.907379,205.953720 
	C279.907379,210.153793 279.907501,213.005310 279.907349,215.856827 
	C279.906921,223.513916 279.986633,231.172134 279.878357,238.827713 
	C279.802673,244.179764 276.749664,247.389374 272.160675,247.293213 
	C267.714264,247.200012 264.972870,244.165955 264.917511,238.970261 
	C264.834167,231.147644 264.894714,223.323471 264.894104,214.999954 
z"/>
<path fill="#050505" opacity="1.000000" stroke="none" 
	d="
M342.569763,179.949738 
	C343.788788,175.148651 346.675781,173.037933 351.122070,173.695129 
	C355.705597,174.372650 357.391602,177.612885 357.396576,181.952240 
	C357.400604,185.437180 357.397400,188.922134 357.397400,193.716843 
	C362.376221,189.180328 366.567810,185.366501 370.752808,181.545517 
	C372.721497,179.748062 374.579315,177.813126 376.661194,176.159302 
	C380.226166,173.327332 384.125000,173.538727 387.006134,176.507324 
	C389.932587,179.522659 389.983246,183.975555 386.630920,187.205154 
	C380.031738,193.562622 373.375702,199.884384 366.399506,205.816788 
	C363.175659,208.558304 363.139954,209.983521 366.303375,212.810577 
	C373.505066,219.246475 380.319733,226.116913 387.259430,232.844009 
	C391.700958,237.149384 392.379242,241.615524 389.196594,245.015503 
	C385.970795,248.461563 381.419586,248.037964 376.977844,243.800690 
	C370.760162,237.869247 364.581085,231.897354 357.399353,224.994980 
	C357.399353,230.447678 357.494415,234.679428 357.375458,238.905167 
	C357.224243,244.277023 354.638153,247.180161 350.149231,247.293335 
	C345.470581,247.411270 342.437012,244.374664 342.416931,238.850891 
	C342.346039,219.353821 342.451569,199.856094 342.569763,179.949738 
z"/>
<path fill="#030303" opacity="1.000000" stroke="none" 
	d="
M232.731064,237.210129 
	C231.976212,234.004913 230.490906,232.826767 227.347519,232.992874 
	C221.542023,233.299667 215.698151,233.288651 209.891418,232.993683 
	C206.943085,232.843903 205.729095,234.018265 205.009827,236.568771 
	C204.471817,238.476578 203.722672,240.338150 202.921036,242.155670 
	C200.948105,246.628860 196.847748,248.466156 192.789688,246.785339 
	C189.060760,245.240829 187.338776,241.165680 188.987579,236.759827 
	C195.379425,219.679871 201.903214,202.649246 208.382401,185.602005 
	C208.853348,184.362915 209.451141,183.165070 209.834427,181.900909 
	C211.222183,177.323700 213.952148,174.144501 218.990036,174.207169 
	C224.054840,174.270157 226.394852,177.765366 228.009369,182.157288 
	C232.585419,194.605408 237.333878,206.990158 242.015182,219.399582 
	C244.004776,224.673630 246.025635,229.936111 247.978989,235.223526 
	C250.102295,240.970917 248.686371,245.395920 244.307388,246.916626 
	C239.675552,248.525177 236.231934,246.362823 233.910767,240.379211 
	C233.551208,239.452347 233.222229,238.513641 232.731064,237.210129 
z"/>
<path fill="#040403" opacity="1.000000" stroke="none" 
	d="
M236.302444,97.286774 
	C246.825867,88.062386 258.513397,85.900215 270.886688,91.319672 
	C282.927643,96.593559 289.383820,106.549911 289.510193,119.677185 
	C289.634216,132.563217 283.510773,142.306717 271.927582,148.226761 
	C258.675690,154.999680 242.021896,150.954926 233.005493,138.974167 
	C223.468094,126.301125 224.669418,109.912720 236.302444,97.286774 
z"/>
<path fill="#E3E1E3" opacity="1.000000" stroke="none" 
	d="
M141.394867,216.001846 
	C145.187225,215.997513 148.524506,215.869568 151.846771,216.037811 
	C156.764801,216.286896 160.098389,219.788864 159.999969,224.339752 
	C159.905472,228.707886 156.704742,231.857803 151.980331,232.232101 
	C139.367065,233.231339 139.317841,233.230576 139.511139,220.647827 
	C139.535034,219.092209 138.274887,216.863266 141.394867,216.001846 
z"/>
<path fill="#DDDBDD" opacity="1.000000" stroke="none" 
	d="
M153.984024,197.971420 
	C150.205048,202.783264 145.219147,200.533478 140.794098,200.931366 
	C139.460983,201.051239 139.559341,199.744766 139.417038,198.763596 
	C138.148819,190.019241 139.640381,188.401474 148.385223,189.106339 
	C153.404938,189.510956 155.322739,192.341461 153.984024,197.971420 
z"/>
<path fill="#E2E0E2" opacity="1.000000" stroke="none" 
	d="
M214.208954,218.078827 
	C211.623001,217.300766 212.952942,215.883682 213.307083,214.899399 
	C214.924316,210.404755 216.698959,205.966751 218.768204,200.597107 
	C220.962936,206.243759 222.871201,211.137253 224.765320,216.036209 
	C225.360947,217.576752 224.707230,218.125931 223.167923,218.101089 
	C220.338135,218.055435 217.507080,218.089172 214.208954,218.078827 
z"/>
<path fill="#FCDE7C" opacity="1.000000" stroke="none" 
	d="
M273.916565,118.740288 
	C274.755219,128.709427 268.045776,136.159531 258.546173,136.431244 
	C248.772308,136.710800 241.891586,129.487793 241.920807,118.429764 
	C246.342392,109.580711 269.033325,108.533051 273.916565,118.740288 
z"/>
<path fill="#F8BD66" opacity="1.000000" stroke="none" 
	d="
M274.317932,118.604866 
	C264.032532,110.931572 253.491241,110.999245 242.362091,117.860214 
	C242.939056,109.740776 249.163773,103.898750 257.444611,103.563728 
	C266.141907,103.211853 272.724579,108.896118 274.317932,118.604866 
z"/>
</svg>