<?xml version="1.0" encoding="UTF-8"?>
<!DOCTYPE svg PUBLIC "-//W3C//DTD SVG 1.1//EN" "http://www.w3.org/Graphics/SVG/1.1/DTD/svg11.dtd">
<svg xmlns="http://www.w3.org/2000/svg" version="1.1" width="209px" height="212px" style="shape-rendering:geometricPrecision; text-rendering:geometricPrecision; image-rendering:optimizeQuality; fill-rule:evenodd; clip-rule:evenodd" xmlns:xlink="http://www.w3.org/1999/xlink">
<g><path style="opacity:1" fill="#f36333" d="M 136.5,96.5 C 150.837,109.798 153.337,125.131 144,142.5C 130.987,160.48 113.487,171.646 91.5,176C 70.8408,177.899 50.1741,179.399 29.5,180.5C 28.3621,176.51 30.0288,174.843 34.5,175.5C 37.1522,175.59 39.4855,174.924 41.5,173.5C 44.1522,173.59 46.4855,172.924 48.5,171.5C 56.2202,168.566 64.2202,166.233 72.5,164.5C 75.1522,164.59 77.4855,163.924 79.5,162.5C 82.1522,162.59 84.4855,161.924 86.5,160.5C 89.1522,160.59 91.4855,159.924 93.5,158.5C 101.22,155.566 109.22,153.233 117.5,151.5C 119.698,151.88 121.365,151.213 122.5,149.5C 123.167,149.5 123.833,149.5 124.5,149.5C 125.756,149.539 126.756,149.039 127.5,148C 125.613,147.22 123.946,147.387 122.5,148.5C 120.901,148.232 119.568,148.566 118.5,149.5C 117.833,149.5 117.5,149.833 117.5,150.5C 88.5359,157.324 59.5359,163.991 30.5,170.5C 28.8212,170.715 27.8212,170.048 27.5,168.5C 29.0269,168.573 30.0269,167.906 30.5,166.5C 32.1815,164.992 34.1815,163.992 36.5,163.5C 38.0269,163.573 39.0269,162.906 39.5,161.5C 41.1815,159.992 43.1815,158.992 45.5,158.5C 47.0269,158.573 48.0269,157.906 48.5,156.5C 65.9084,146.44 83.5751,136.773 101.5,127.5C 103.027,127.573 104.027,126.906 104.5,125.5C 106.181,123.992 108.181,122.992 110.5,122.5C 112.027,122.573 113.027,121.906 113.5,120.5C 112.833,119.167 112.167,119.167 111.5,120.5C 82.7309,134.718 54.0643,149.218 25.5,164C 24.5,164.667 23.5,164.667 22.5,164C 21.2264,163.023 21.2264,162.189 22.5,161.5C 26.1002,159.57 29.1002,156.903 31.5,153.5C 32.1667,152.167 33.1667,151.167 34.5,150.5C 40.1082,146.561 45.1082,141.894 49.5,136.5C 50.1667,135.167 51.1667,134.167 52.5,133.5C 57.774,129.895 62.4407,125.562 66.5,120.5C 67.1667,119.167 68.1667,118.167 69.5,117.5C 75.1082,113.561 80.1082,108.894 84.5,103.5C 85.1667,102.167 86.1667,101.167 87.5,100.5C 92.774,96.8953 97.4407,92.562 101.5,87.5C 102.167,86.1667 103.167,85.1667 104.5,84.5C 109.774,80.8953 114.441,76.562 118.5,71.5C 119.167,70.1667 120.167,69.1667 121.5,68.5C 127.108,64.561 132.108,59.8943 136.5,54.5C 135.833,53.1667 135.167,53.1667 134.5,54.5C 133.833,54.5 133.5,54.8333 133.5,55.5C 132.833,55.5 132.5,55.8333 132.5,56.5C 131.833,56.5 131.5,56.8333 131.5,57.5C 130.833,57.5 130.5,57.8333 130.5,58.5C 129.833,58.5 129.5,58.8333 129.5,59.5C 128.833,59.5 128.5,59.8333 128.5,60.5C 127.833,60.5 127.5,60.8333 127.5,61.5C 91.5197,93.1442 55.5197,124.811 19.5,156.5C 18.1667,156.5 17.5,155.833 17.5,154.5C 18.3403,152.147 19.6736,150.147 21.5,148.5C 22.9063,148.027 23.573,147.027 23.5,145.5C 24.9063,145.027 25.573,144.027 25.5,142.5C 26.9063,142.027 27.573,141.027 27.5,139.5C 28.8109,136.865 30.4776,134.531 32.5,132.5C 33.9063,132.027 34.573,131.027 34.5,129.5C 35.9063,129.027 36.573,128.027 36.5,126.5C 37.9063,126.027 38.573,125.027 38.5,123.5C 40.3437,119.808 42.6771,116.475 45.5,113.5C 46.9063,113.027 47.573,112.027 47.5,110.5C 48.9063,110.027 49.573,109.027 49.5,107.5C 51.3437,103.808 53.6771,100.475 56.5,97.5C 57.9063,97.0269 58.573,96.0269 58.5,94.5C 59.9063,94.0269 60.573,93.0269 60.5,91.5C 61.9063,91.0269 62.573,90.0269 62.5,88.5C 64.2624,87.7377 65.2624,86.4044 65.5,84.5C 65.427,82.9731 66.0937,81.9731 67.5,81.5C 68.9063,81.0269 69.573,80.0269 69.5,78.5C 70.9063,78.0269 71.573,77.0269 71.5,75.5C 72.9063,75.0269 73.573,74.0269 73.5,72.5C 75.3437,68.8084 77.6771,65.4751 80.5,62.5C 81.9063,62.0269 82.573,61.0269 82.5,59.5C 83.9063,59.0269 84.573,58.0269 84.5,56.5C 85.9063,56.0269 86.573,55.0269 86.5,53.5C 87.5294,51.4832 88.5294,49.4832 89.5,47.5C 87.1,49.2964 85.4333,51.6298 84.5,54.5C 59.6877,88.099 34.8544,121.766 10,155.5C 8.63463,154.407 8.3013,153.074 9,151.5C 23.4628,116.248 37.6294,80.9143 51.5,45.5C 34.6084,80.9555 17.9417,116.622 1.5,152.5C 1.04311,153.298 0.376442,153.631 -0.5,153.5C -0.5,150.167 -0.5,146.833 -0.5,143.5C -0.166667,143.5 0.166667,143.5 0.5,143.5C 1.92381,141.485 2.59047,139.152 2.5,136.5C 2.23219,134.901 2.56552,133.568 3.5,132.5C 4.92381,130.485 5.59047,128.152 5.5,125.5C 6.92381,123.485 7.59047,121.152 7.5,118.5C 7.23219,116.901 7.56552,115.568 8.5,114.5C 9.92381,112.485 10.5905,110.152 10.5,107.5C 11.9238,105.485 12.5905,103.152 12.5,100.5C 12.2322,98.901 12.5655,97.5676 13.5,96.5C 14.9238,94.4855 15.5905,92.1522 15.5,89.5C 15.2322,87.901 15.5655,86.5676 16.5,85.5C 17.9238,83.4855 18.5905,81.1522 18.5,78.5C 19.9238,76.4855 20.5905,74.1522 20.5,71.5C 20.2322,69.901 20.5655,68.5676 21.5,67.5C 22.9238,65.4855 23.5905,63.1522 23.5,60.5C 24.9238,58.4855 25.5905,56.1522 25.5,53.5C 25.2322,51.901 25.5655,50.5676 26.5,49.5C 27.9238,47.4855 28.5905,45.1522 28.5,42.5C 28.2322,40.901 28.5655,39.5676 29.5,38.5C 30.9238,36.4855 31.5905,34.1522 31.5,31.5C 32.9238,29.4855 33.5905,27.1522 33.5,24.5C 33.6203,21.5198 34.287,18.6865 35.5,16C 66.1667,15.3333 96.8333,15.3333 127.5,16C 159.3,20.1441 168.133,36.6441 154,65.5C 144.653,77.7646 132.486,85.9313 117.5,90C 124.337,90.8897 130.671,93.0564 136.5,96.5 Z M 53.5,40.5 C 53.5979,42.5529 52.9313,44.2196 51.5,45.5C 51.4021,43.4471 52.0687,41.7804 53.5,40.5 Z M 91.5,44.5 C 91.5,45.1667 91.5,45.8333 91.5,46.5C 90.8333,46.8333 90.1667,47.1667 89.5,47.5C 89.427,45.9731 90.0937,44.9731 91.5,44.5 Z M 89.5,47.5 C 88.5294,49.4832 87.5294,51.4832 86.5,53.5C 85.8333,53.8333 85.1667,54.1667 84.5,54.5C 85.4333,51.6298 87.1,49.2964 89.5,47.5 Z"/></g>
<g><path style="opacity:0.267" fill="#fcded5" d="M 166.5,23.5 C 163.941,23.1984 161.607,23.5318 159.5,24.5C 158.078,24.2914 156.745,23.7914 155.5,23C 159.358,22.1901 163.024,22.3567 166.5,23.5 Z"/></g>
<g><path style="opacity:1" fill="#f36536" d="M 159.5,24.5 C 161.607,23.5318 163.941,23.1984 166.5,23.5C 178.126,23.2653 188.459,26.5986 197.5,33.5C 197.738,35.4044 198.738,36.7377 200.5,37.5C 200.427,39.0269 201.094,40.0269 202.5,40.5C 207.057,53.8149 204.891,66.1482 196,77.5C 187.124,86.5461 176.624,92.8794 164.5,96.5C 159.213,97.961 159.547,98.6277 165.5,98.5C 172.707,99.7677 178.707,103.101 183.5,108.5C 183.427,110.027 184.094,111.027 185.5,111.5C 190.732,117.384 193.065,124.384 192.5,132.5C 191.151,148.361 184.151,161.195 171.5,171C 156.885,181.594 140.552,187.094 122.5,187.5C 91.1649,187.667 59.8316,187.5 28.5,187C 30.3817,186.802 32.0484,186.302 33.5,185.5C 61.5733,184.791 89.5733,183.124 117.5,180.5C 121.708,180.323 125.374,178.99 128.5,176.5C 133.193,174.153 137.86,171.82 142.5,169.5C 144.027,169.573 145.027,168.906 145.5,167.5C 145.973,166.094 146.973,165.427 148.5,165.5C 152.167,163.833 154.833,161.167 156.5,157.5C 166.904,146.791 170.737,134.125 168,119.5C 162.646,104.896 152.146,97.2295 136.5,96.5C 146.371,92.5635 155.705,87.5635 164.5,81.5C 167.833,80.1667 170.167,77.8333 171.5,74.5C 171.833,73.5 172.5,72.8333 173.5,72.5C 174.906,72.0269 175.573,71.0269 175.5,69.5C 178.511,62.9527 180.511,56.1193 181.5,49C 180.676,41.1853 177.343,34.6853 171.5,29.5C 171.027,28.0937 170.027,27.427 168.5,27.5C 165.421,26.696 162.421,25.696 159.5,24.5 Z"/></g>
<g><path style="opacity:0.027" fill="#ffe2d9" d="M 104.5,27.5 C 104.5,26.8333 104.167,26.5 103.5,26.5C 103.917,24.3548 104.917,23.6882 106.5,24.5C 106.058,25.7387 105.391,26.7387 104.5,27.5 Z"/></g>
<g><path style="opacity:0.949" fill="#fb9f80" d="M 33.5,24.5 C 33.5905,27.1522 32.9238,29.4855 31.5,31.5C 31.4095,28.8478 32.0762,26.5145 33.5,24.5 Z"/></g>
<g><path style="opacity:0.863" fill="#ffb59b" d="M 103.5,27.5 C 103.833,27.5 104.167,27.5 104.5,27.5C 104.179,29.0481 103.179,29.7148 101.5,29.5C 102.167,28.8333 102.833,28.1667 103.5,27.5 Z"/></g>
<g><path style="opacity:0.51" fill="#fcb39b" d="M 168.5,27.5 C 170.027,27.427 171.027,28.0937 171.5,29.5C 169.973,29.573 168.973,28.9063 168.5,27.5 Z"/></g>
<g><path style="opacity:0.008" fill="#feeae3" d="M 58.5,30.5 C 58.5,31.8333 57.8333,32.5 56.5,32.5C 56.5,31.1667 57.1667,30.5 58.5,30.5 Z"/></g>
<g><path style="opacity:0.906" fill="#feaf93" d="M 100.5,30.5 C 100.833,31.8333 101.167,31.8333 101.5,30.5C 101.833,30.5 102.167,30.5 102.5,30.5C 102.179,32.0481 101.179,32.7148 99.5,32.5C 99.3284,31.5084 99.6618,30.8417 100.5,30.5 Z"/></g>
<g><path style="opacity:0.031" fill="#fedcd0" d="M 56.5,32.5 C 56.5,33.1667 56.8333,33.5 57.5,33.5C 57.6716,34.4916 57.3382,35.1583 56.5,35.5C 56.5,34.8333 56.1667,34.5 55.5,34.5C 55.3284,33.5084 55.6618,32.8417 56.5,32.5 Z"/></g>
<g><path style="opacity:0.902" fill="#fca78b" d="M 31.5,31.5 C 31.5905,34.1522 30.9238,36.4855 29.5,38.5C 29.4095,35.8478 30.0762,33.5145 31.5,31.5 Z"/></g>
<g><path style="opacity:0.729" fill="#ffbfaa" d="M 197.5,33.5 C 199.262,34.2623 200.262,35.5956 200.5,37.5C 198.738,36.7377 197.738,35.4044 197.5,33.5 Z"/></g>
<g><path style="opacity:0.075" fill="#fddfd5" d="M 55.5,34.5 C 56.1667,34.5 56.5,34.8333 56.5,35.5C 56.6716,36.4916 56.3382,37.1583 55.5,37.5C 55.5,36.8333 55.1667,36.5 54.5,36.5C 54.3284,35.5084 54.6618,34.8417 55.5,34.5 Z"/></g>
<g><path style="opacity:0.714" fill="#feb69d" d="M 99.5,33.5 C 99.8333,33.5 100.167,33.5 100.5,33.5C 100.262,35.4044 99.2624,36.7377 97.5,37.5C 97.5,36.8333 97.1667,36.5 96.5,36.5C 97.1667,35.8333 97.8333,35.1667 98.5,34.5C 99.1667,34.5 99.5,34.1667 99.5,33.5 Z"/></g>
<g><path style="opacity:0.475" fill="#fcbda7" d="M 96.5,37.5 C 96.8333,37.5 97.1667,37.5 97.5,37.5C 97.573,39.0269 96.9063,40.0269 95.5,40.5C 95.5,39.8333 95.5,39.1667 95.5,38.5C 96.1667,38.5 96.5,38.1667 96.5,37.5 Z"/></g>
<g><path style="opacity:0.431" fill="#fdbca6" d="M 200.5,37.5 C 201.906,37.9731 202.573,38.9731 202.5,40.5C 201.094,40.0269 200.427,39.0269 200.5,37.5 Z"/></g>
<g><path style="opacity:0.529" fill="#fdb69e" d="M 94.5,40.5 C 94.8333,40.5 95.1667,40.5 95.5,40.5C 95.573,42.0269 94.9063,43.0269 93.5,43.5C 93.5,42.8333 93.5,42.1667 93.5,41.5C 94.1667,41.5 94.5,41.1667 94.5,40.5 Z"/></g>
<g><path style="opacity:0.933" fill="#fca284" d="M 28.5,42.5 C 28.5905,45.1522 27.9238,47.4855 26.5,49.5C 26.4095,46.8478 27.0762,44.5145 28.5,42.5 Z"/></g>
<g><path style="opacity:0.588" fill="#fcaf95" d="M 92.5,43.5 C 92.8333,43.5 93.1667,43.5 93.5,43.5C 93.573,45.0269 92.9063,46.0269 91.5,46.5C 91.5,45.8333 91.5,45.1667 91.5,44.5C 92.1667,44.5 92.5,44.1667 92.5,43.5 Z"/></g>
<g><path style="opacity:0.953" fill="#fb8f6a" d="M 138.5,52.5 C 138.5,52.1667 138.5,51.8333 138.5,51.5C 139.167,51.5 139.5,51.1667 139.5,50.5C 140.167,50.5 140.5,50.1667 140.5,49.5C 141.167,49.5 141.5,49.1667 141.5,48.5C 142.167,48.5 142.5,48.1667 142.5,47.5C 143.167,47.5 143.5,47.1667 143.5,46.5C 144.167,46.5 144.5,46.1667 144.5,45.5C 146.132,42.7913 146.632,43.1247 146,46.5C 143.894,49.1177 141.394,51.1177 138.5,52.5 Z"/></g>
<g><path style="opacity:0.455" fill="#fdbfab" d="M 86.5,53.5 C 86.573,55.0269 85.9063,56.0269 84.5,56.5C 84.5,55.8333 84.5,55.1667 84.5,54.5C 85.1667,54.1667 85.8333,53.8333 86.5,53.5 Z"/></g>
<g><path style="opacity:0.957" fill="#fb9c7c" d="M 25.5,53.5 C 25.5905,56.1522 24.9238,58.4855 23.5,60.5C 23.4095,57.8478 24.0762,55.5145 25.5,53.5 Z"/></g>
<g><path style="opacity:0.51" fill="#fdb8a2" d="M 84.5,56.5 C 84.573,58.0269 83.9063,59.0269 82.5,59.5C 82.427,57.9731 83.0937,56.9731 84.5,56.5 Z"/></g>
<g><path style="opacity:0.569" fill="#fcb198" d="M 82.5,59.5 C 82.573,61.0269 81.9063,62.0269 80.5,62.5C 80.427,60.9731 81.0937,59.9731 82.5,59.5 Z"/></g>
<g><path style="opacity:0.914" fill="#fca588" d="M 23.5,60.5 C 23.5905,63.1522 22.9238,65.4855 21.5,67.5C 21.4095,64.8478 22.0762,62.5145 23.5,60.5 Z"/></g>
<g><path style="opacity:0.898" fill="#fc9b7a" d="M 134.5,54.5 C 135.167,54.5 135.833,54.5 136.5,54.5C 132.108,59.8943 127.108,64.561 121.5,68.5C 123.5,66.1667 125.5,63.8333 127.5,61.5C 128.167,61.5 128.5,61.1667 128.5,60.5C 129.167,60.5 129.5,60.1667 129.5,59.5C 130.167,59.5 130.5,59.1667 130.5,58.5C 131.167,58.5 131.5,58.1667 131.5,57.5C 132.167,57.5 132.5,57.1667 132.5,56.5C 133.167,56.5 133.5,56.1667 133.5,55.5C 134.167,55.5 134.5,55.1667 134.5,54.5 Z"/></g>
<g><path style="opacity:0.498" fill="#fdb9a3" d="M 175.5,69.5 C 175.573,71.0269 174.906,72.0269 173.5,72.5C 173.427,70.9731 174.094,69.9731 175.5,69.5 Z"/></g>
<g><path style="opacity:0.945" fill="#fb9f80" d="M 20.5,71.5 C 20.5905,74.1522 19.9238,76.4855 18.5,78.5C 18.4095,75.8478 19.0762,73.5145 20.5,71.5 Z"/></g>
<g><path style="opacity:0.49" fill="#fcbba5" d="M 73.5,72.5 C 73.573,74.0269 72.9063,75.0269 71.5,75.5C 71.427,73.9731 72.0937,72.9731 73.5,72.5 Z"/></g>
<g><path style="opacity:0.545" fill="#fcb49c" d="M 71.5,75.5 C 71.573,77.0269 70.9063,78.0269 69.5,78.5C 69.427,76.9731 70.0937,75.9731 71.5,75.5 Z"/></g>
<g><path style="opacity:0.62" fill="#fdbaa3" d="M 171.5,74.5 C 170.167,77.8333 167.833,80.1667 164.5,81.5C 166.5,78.8333 168.833,76.5 171.5,74.5 Z"/></g>
<g><path style="opacity:0.894" fill="#fc9c7c" d="M 118.5,71.5 C 114.441,76.562 109.774,80.8953 104.5,84.5C 108.559,79.438 113.226,75.1047 118.5,71.5 Z"/></g>
<g><path style="opacity:0.6" fill="#fcad93" d="M 69.5,78.5 C 69.573,80.0269 68.9063,81.0269 67.5,81.5C 67.427,79.9731 68.0937,78.9731 69.5,78.5 Z"/></g>
<g><path style="opacity:0.898" fill="#fca88c" d="M 18.5,78.5 C 18.5905,81.1522 17.9238,83.4855 16.5,85.5C 16.4095,82.8478 17.0762,80.5145 18.5,78.5 Z"/></g>
<g><path style="opacity:0.71" fill="#fcac90" d="M 65.5,84.5 C 65.2624,86.4044 64.2624,87.7377 62.5,88.5C 62.7376,86.5956 63.7376,85.2623 65.5,84.5 Z"/></g>
<g><path style="opacity:0.463" fill="#fdbda9" d="M 62.5,88.5 C 62.573,90.0269 61.9063,91.0269 60.5,91.5C 60.427,89.9731 61.0937,88.9731 62.5,88.5 Z"/></g>
<g><path style="opacity:0.933" fill="#fca284" d="M 15.5,89.5 C 15.5905,92.1522 14.9238,94.4855 13.5,96.5C 13.4095,93.8478 14.0762,91.5145 15.5,89.5 Z"/></g>
<g><path style="opacity:0.525" fill="#fdb69f" d="M 60.5,91.5 C 60.573,93.0269 59.9063,94.0269 58.5,94.5C 58.427,92.9731 59.0937,91.9731 60.5,91.5 Z"/></g>
<g><path style="opacity:0.886" fill="#fc9d7d" d="M 101.5,87.5 C 97.4407,92.562 92.774,96.8953 87.5,100.5C 91.5593,95.438 96.226,91.1047 101.5,87.5 Z"/></g>
<g><path style="opacity:0.58" fill="#fcb097" d="M 58.5,94.5 C 58.573,96.0269 57.9063,97.0269 56.5,97.5C 56.427,95.9731 57.0937,94.9731 58.5,94.5 Z"/></g>
<g><path style="opacity:0.337" fill="#fbc6b5" d="M 164.5,96.5 C 164.833,97.1667 165.167,97.8333 165.5,98.5C 159.547,98.6277 159.213,97.961 164.5,96.5 Z"/></g>
<g><path style="opacity:0.957" fill="#fb9c7c" d="M 12.5,100.5 C 12.5905,103.152 11.9238,105.485 10.5,107.5C 10.4095,104.848 11.0762,102.515 12.5,100.5 Z"/></g>
<g><path style="opacity:0.498" fill="#fdbaa3" d="M 49.5,107.5 C 49.573,109.027 48.9063,110.027 47.5,110.5C 47.427,108.973 48.0937,107.973 49.5,107.5 Z"/></g>
<g><path style="opacity:0.157" fill="#fde3da" d="M 129.5,111.5 C 129.639,109.663 130.306,109.33 131.5,110.5C 131.043,111.298 130.376,111.631 129.5,111.5 Z"/></g>
<g><path style="opacity:0.796" fill="#feb299" d="M 183.5,108.5 C 184.906,108.973 185.573,109.973 185.5,111.5C 184.094,111.027 183.427,110.027 183.5,108.5 Z"/></g>
<g><path style="opacity:0.918" fill="#fba588" d="M 10.5,107.5 C 10.5905,110.152 9.92381,112.485 8.5,114.5C 8.40953,111.848 9.07619,109.515 10.5,107.5 Z"/></g>
<g><path style="opacity:0.867" fill="#fc9e7e" d="M 84.5,103.5 C 80.1082,108.894 75.1082,113.561 69.5,117.5C 73.8918,112.106 78.8918,107.439 84.5,103.5 Z"/></g>
<g><path style="opacity:0.561" fill="#fcb29a" d="M 47.5,110.5 C 47.573,112.027 46.9063,113.027 45.5,113.5C 45.427,111.973 46.0937,110.973 47.5,110.5 Z"/></g>
<g><path style="opacity:0.812" fill="#fcad93" d="M 120.5,115.5 C 121.167,115.5 121.833,115.5 122.5,115.5C 122.027,116.906 121.027,117.573 119.5,117.5C 119.5,117.167 119.5,116.833 119.5,116.5C 120.167,116.5 120.5,116.167 120.5,115.5 Z"/></g>
<g><path style="opacity:0.941" fill="#fba081" d="M 7.5,118.5 C 7.59047,121.152 6.92381,123.485 5.5,125.5C 5.40953,122.848 6.07619,120.515 7.5,118.5 Z"/></g>
<g><path style="opacity:0.812" fill="#fcab91" d="M 111.5,120.5 C 112.167,120.5 112.833,120.5 113.5,120.5C 113.027,121.906 112.027,122.573 110.5,122.5C 110.833,121.833 111.167,121.167 111.5,120.5 Z"/></g>
<g><path style="opacity:0.482" fill="#fcbca7" d="M 38.5,123.5 C 38.573,125.027 37.9063,126.027 36.5,126.5C 36.427,124.973 37.0937,123.973 38.5,123.5 Z"/></g>
<g><path style="opacity:0.816" fill="#fcac91" d="M 104.5,125.5 C 104.027,126.906 103.027,127.573 101.5,127.5C 101.973,126.094 102.973,125.427 104.5,125.5 Z"/></g>
<g><path style="opacity:0.898" fill="#fca98d" d="M 5.5,125.5 C 5.59047,128.152 4.92381,130.485 3.5,132.5C 3.40953,129.848 4.07619,127.515 5.5,125.5 Z"/></g>
<g><path style="opacity:0.537" fill="#fcb49d" d="M 36.5,126.5 C 36.573,128.027 35.9063,129.027 34.5,129.5C 34.427,127.973 35.0937,126.973 36.5,126.5 Z"/></g>
<g><path style="opacity:0.89" fill="#fc9c7c" d="M 66.5,120.5 C 62.4407,125.562 57.774,129.895 52.5,133.5C 56.5593,128.438 61.226,124.105 66.5,120.5 Z"/></g>
<g><path style="opacity:0.596" fill="#fcae94" d="M 34.5,129.5 C 34.573,131.027 33.9063,132.027 32.5,132.5C 32.427,130.973 33.0937,129.973 34.5,129.5 Z"/></g>
<g><path style="opacity:0.929" fill="#fca384" d="M 2.5,136.5 C 2.59047,139.152 1.92381,141.485 0.5,143.5C 0.409526,140.848 1.07619,138.515 2.5,136.5 Z"/></g>
<g><path style="opacity:0.455" fill="#fdbfab" d="M 27.5,139.5 C 27.573,141.027 26.9063,142.027 25.5,142.5C 25.427,140.973 26.0937,139.973 27.5,139.5 Z"/></g>
<g><path style="opacity:0.851" fill="#fca080" d="M 49.5,136.5 C 45.1082,141.894 40.1082,146.561 34.5,150.5C 38.8918,145.106 43.8918,140.439 49.5,136.5 Z"/></g>
<g><path style="opacity:0.514" fill="#fdb8a2" d="M 25.5,142.5 C 25.573,144.027 24.9063,145.027 23.5,145.5C 23.427,143.973 24.0937,142.973 25.5,142.5 Z"/></g>
<g><path style="opacity:0.573" fill="#fcb198" d="M 23.5,145.5 C 23.573,147.027 22.9063,148.027 21.5,148.5C 21.427,146.973 22.0937,145.973 23.5,145.5 Z"/></g>
<g><path style="opacity:0.098" fill="#fdd7cb" d="M 122.5,148.5 C 123.946,147.387 125.613,147.22 127.5,148C 126.756,149.039 125.756,149.539 124.5,149.5C 124.158,148.662 123.492,148.328 122.5,148.5 Z"/></g>
<g><path style="opacity:0.929" fill="#feb197" d="M 118.5,149.5 C 119.568,148.566 120.901,148.232 122.5,148.5C 122.5,148.833 122.5,149.167 122.5,149.5C 121.365,151.213 119.698,151.88 117.5,151.5C 117.5,151.167 117.5,150.833 117.5,150.5C 120.517,150.444 120.85,150.11 118.5,149.5 Z"/></g>
<g><path style="opacity:0.965" fill="#fb9977" d="M 17.5,154.5 C 17.5,155.833 18.1667,156.5 19.5,156.5C 18.713,158.104 17.3797,158.771 15.5,158.5C 15.2291,156.62 15.8958,155.287 17.5,154.5 Z"/></g>
<g><path style="opacity:0.776" fill="#fcb199" d="M 48.5,156.5 C 48.0269,157.906 47.0269,158.573 45.5,158.5C 45.9731,157.094 46.9731,156.427 48.5,156.5 Z"/></g>
<g><path style="opacity:0.804" fill="#fda78a" d="M 31.5,153.5 C 29.1002,156.903 26.1002,159.57 22.5,161.5C 24.8998,158.097 27.8998,155.43 31.5,153.5 Z"/></g>
<g><path style="opacity:0.945" fill="#fa9877" d="M 93.5,158.5 C 91.4855,159.924 89.1522,160.59 86.5,160.5C 88.5145,159.076 90.8478,158.41 93.5,158.5 Z"/></g>
<g><path style="opacity:0.945" fill="#fb9a7a" d="M 86.5,160.5 C 84.4855,161.924 82.1522,162.59 79.5,162.5C 81.5145,161.076 83.8478,160.41 86.5,160.5 Z"/></g>
<g><path style="opacity:0.765" fill="#fca486" d="M 156.5,157.5 C 154.833,161.167 152.167,163.833 148.5,165.5C 150.833,162.5 153.5,159.833 156.5,157.5 Z"/></g>
<g><path style="opacity:0.784" fill="#fcb197" d="M 39.5,161.5 C 39.0269,162.906 38.0269,163.573 36.5,163.5C 36.9731,162.094 37.9731,161.427 39.5,161.5 Z"/></g>
<g><path style="opacity:0.929" fill="#fb9c7b" d="M 79.5,162.5 C 77.4855,163.924 75.1522,164.59 72.5,164.5C 74.5145,163.076 76.8478,162.41 79.5,162.5 Z"/></g>
<g><path style="opacity:0.788" fill="#fcb097" d="M 30.5,166.5 C 30.0269,167.906 29.0269,168.573 27.5,168.5C 27.9731,167.094 28.9731,166.427 30.5,166.5 Z"/></g>
<g><path style="opacity:0.745" fill="#fdb39b" d="M 145.5,167.5 C 145.027,168.906 144.027,169.573 142.5,169.5C 142.973,168.094 143.973,167.427 145.5,167.5 Z"/></g>
<g><path style="opacity:0.518" fill="#fbbca8" d="M 27.5,168.5 C 27.8212,170.048 28.8212,170.715 30.5,170.5C 29.4324,171.434 28.099,171.768 26.5,171.5C 26.2627,170.209 26.596,169.209 27.5,168.5 Z"/></g>
<g><path style="opacity:0.957" fill="#fa9776" d="M 48.5,171.5 C 46.4855,172.924 44.1522,173.59 41.5,173.5C 43.5145,172.076 45.8478,171.41 48.5,171.5 Z"/></g>
<g><path style="opacity:0.945" fill="#fa9877" d="M 41.5,173.5 C 39.4855,174.924 37.1522,175.59 34.5,175.5C 36.5145,174.076 38.8478,173.41 41.5,173.5 Z"/></g>
<g><path style="opacity:0.902" fill="#fca081" d="M 128.5,176.5 C 125.374,178.99 121.708,180.323 117.5,180.5C 120.939,178.796 124.605,177.462 128.5,176.5 Z"/></g>
<g><path style="opacity:0.733" fill="#f68f6d" d="M 33.5,185.5 C 32.0484,186.302 30.3817,186.802 28.5,187C 59.8316,187.5 91.1649,187.667 122.5,187.5C 91.0044,188.498 59.3377,188.832 27.5,188.5C 27.5,187.5 27.5,186.5 27.5,185.5C 29.5,185.5 31.5,185.5 33.5,185.5 Z"/></g>
</svg>
