<?xml version="1.0" encoding="UTF-8"?>
<!DOCTYPE svg PUBLIC "-//W3C//DTD SVG 1.1//EN" "http://www.w3.org/Graphics/SVG/1.1/DTD/svg11.dtd">
<svg xmlns="http://www.w3.org/2000/svg" version="1.1" width="127px" height="105px" style="shape-rendering:geometricPrecision; text-rendering:geometricPrecision; image-rendering:optimizeQuality; fill-rule:evenodd; clip-rule:evenodd" xmlns:xlink="http://www.w3.org/1999/xlink">
<g><path style="opacity:1" fill="#2460a2" d="M 76.5,-0.5 C 82.8333,-0.5 89.1667,-0.5 95.5,-0.5C 110.938,3.10677 120.104,12.7734 123,28.5C 123.541,35.5961 122.874,42.5961 121,49.5C 118,61.5 115,73.5 112,85.5C 110.276,90.036 106.943,92.3694 102,92.5C 94.9472,91.9943 92.6138,88.3277 95,81.5C 98.9941,65.8573 102.827,50.1906 106.5,34.5C 106.079,25.2478 101.412,19.4145 92.5,17C 78.6479,15.0144 67.4813,19.5144 59,30.5C 55.6667,42.5 52.3333,54.5 49,66.5C 44.3958,74.2228 38.7292,75.2228 32,69.5C 33.0752,59.5376 35.2418,49.8709 38.5,40.5C 39.9238,38.4855 40.5905,36.1522 40.5,33.5C 40.9176,27.2203 43.2509,21.887 47.5,17.5C 49.8333,15.8333 51.8333,13.8333 53.5,11.5C 60.2111,5.64466 67.8778,1.64466 76.5,-0.5 Z"/></g>
<g><path style="opacity:1" fill="#de3728" d="M 31.5,87.5 C 35.6463,88.647 39.9796,88.8136 44.5,88C 45.4158,87.7216 46.0825,87.2216 46.5,86.5C 52.5063,84.1677 57.8397,80.8344 62.5,76.5C 64.9754,75.3126 65.9754,73.3126 65.5,70.5C 65.2322,68.901 65.5655,67.5676 66.5,66.5C 67.9238,64.4855 68.5905,62.1522 68.5,59.5C 68.5651,56.5718 69.2318,53.9052 70.5,51.5C 71.9238,49.4855 72.5905,47.1522 72.5,44.5C 72.4095,41.8478 73.0762,39.5145 74.5,37.5C 75.9063,37.0269 76.573,36.0269 76.5,34.5C 77.0577,33.2101 78.0577,32.3768 79.5,32C 83.8288,30.8485 87.6621,31.6819 91,34.5C 88.6103,50.062 84.9436,65.3953 80,80.5C 72.1054,93.0338 60.9387,101.034 46.5,104.5C 39.8333,104.5 33.1667,104.5 26.5,104.5C 19.0511,102.275 12.7178,98.275 7.5,92.5C 7.44563,90.368 6.44563,89.0347 4.5,88.5C 2.21674,84.3038 0.55007,79.9705 -0.5,75.5C -0.5,71.8333 -0.5,68.1667 -0.5,64.5C 1.5195,55.7558 3.85283,47.0892 6.5,38.5C 7.92381,36.4855 8.59047,34.1522 8.5,31.5C 8.61272,25.505 10.6127,20.3384 14.5,16C 18.5,14 22.5,14 26.5,16C 28.282,18.2431 28.782,20.7431 28,23.5C 23.7732,38.9072 19.9399,54.4072 16.5,70C 17.3948,79.3922 22.3948,85.2255 31.5,87.5 Z"/></g>
<g><path style="opacity:0.678" fill="#94b4d3" d="M 53.5,11.5 C 51.8333,13.8333 49.8333,15.8333 47.5,17.5C 48.5,14.5 50.5,12.5 53.5,11.5 Z"/></g>
<g><path style="opacity:0.416" fill="#f6afa9" d="M 76.5,34.5 C 76.573,36.0269 75.9063,37.0269 74.5,37.5C 74.427,35.9731 75.0937,34.9731 76.5,34.5 Z"/></g>
<g><path style="opacity:0.663" fill="#f0938b" d="M 8.5,31.5 C 8.59047,34.1522 7.92381,36.4855 6.5,38.5C 6.40953,35.8478 7.07619,33.5145 8.5,31.5 Z"/></g>
<g><path style="opacity:0.714" fill="#82a6cc" d="M 40.5,33.5 C 40.5905,36.1522 39.9238,38.4855 38.5,40.5C 38.4095,37.8478 39.0762,35.5145 40.5,33.5 Z"/></g>
<g><path style="opacity:0.745" fill="#ee887e" d="M 72.5,44.5 C 72.5905,47.1522 71.9238,49.4855 70.5,51.5C 70.4095,48.8478 71.0762,46.5145 72.5,44.5 Z"/></g>
<g><path style="opacity:0.729" fill="#ef8e85" d="M 68.5,59.5 C 68.5905,62.1522 67.9238,64.4855 66.5,66.5C 66.4095,63.8478 67.0762,61.5145 68.5,59.5 Z"/></g>
<g><path style="opacity:0.996" fill="#ee8174" d="M 65.5,70.5 C 65.9754,73.3126 64.9754,75.3126 62.5,76.5C 63.5082,74.4561 64.5082,72.4561 65.5,70.5 Z"/></g>
<g><path style="opacity:0.984" fill="#f2958a" d="M 46.5,86.5 C 46.0825,87.2216 45.4158,87.7216 44.5,88C 39.9796,88.8136 35.6463,88.647 31.5,87.5C 36.547,87.6625 41.547,87.3292 46.5,86.5 Z"/></g>
<g><path style="opacity:0.961" fill="#f69e91" d="M 4.5,88.5 C 6.44563,89.0347 7.44563,90.368 7.5,92.5C 6.02561,91.5637 5.02561,90.2303 4.5,88.5 Z"/></g>
</svg>
